<svg xmlns="http://www.w3.org/2000/svg" version="1.1" xmlns:xlink="http://www.w3.org/1999/xlink" xmlns:svgjs="http://svgjs.dev/svgjs" width="1920" height="1080" preserveAspectRatio="none" viewBox="0 0 1920 1080"><g mask="url(&quot;#SvgjsMask1103&quot;)" fill="none"><rect width="1920" height="1080" x="0" y="0" fill="rgba(13, 24, 30, 1)"></rect><path d="M279.27 581.12 a359.23 359.23 0 1 0 718.46 0 a359.23 359.23 0 1 0 -718.46 0z" fill="rgba(18, 32, 41, 0.51)" class="triangle-float1"></path><path d="M407.45 973.66 a207.77 207.77 0 1 0 415.54 0 a207.77 207.77 0 1 0 -415.54 0z" fill="rgba(18, 32, 41, 0.51)" class="triangle-float1"></path><path d="M110.2 157.65 a222.64 222.64 0 1 0 445.28 0 a222.64 222.64 0 1 0 -445.28 0z" fill="rgba(18, 32, 41, 0.51)" class="triangle-float3"></path><path d="M1426.52 188.04 a258.9 258.9 0 1 0 517.8 0 a258.9 258.9 0 1 0 -517.8 0z" fill="rgba(18, 32, 41, 0.51)" class="triangle-float3"></path><path d="M1257.09 370.43 a190.44 190.44 0 1 0 380.88 0 a190.44 190.44 0 1 0 -380.88 0z" fill="rgba(18, 32, 41, 0.51)" class="triangle-float3"></path><path d="M1172.41 27.8 a229.45 229.45 0 1 0 458.9 0 a229.45 229.45 0 1 0 -458.9 0z" fill="rgba(18, 32, 41, 0.51)" class="triangle-float2"></path><path d="M268.67 6.48 a210.11 210.11 0 1 0 420.22 0 a210.11 210.11 0 1 0 -420.22 0z" fill="rgba(18, 32, 41, 0.51)" class="triangle-float1"></path><path d="M33.06 555.8 a266.69 266.69 0 1 0 533.38 0 a266.69 266.69 0 1 0 -533.38 0z" fill="rgba(18, 32, 41, 0.51)" class="triangle-float1"></path><path d="M984.09 605.77 a192.5 192.5 0 1 0 385 0 a192.5 192.5 0 1 0 -385 0z" fill="rgba(18, 32, 41, 0.51)" class="triangle-float3"></path></g><defs><mask id="SvgjsMask1103"><rect width="1920" height="1080" fill="#ffffff"></rect></mask><style>
                @keyframes float1 {
                    0%{transform: translate(0, 0)}
                    50%{transform: translate(-10px, 0)}
                    100%{transform: translate(0, 0)}
                }

                .triangle-float1 {
                    animation: float1 5s infinite;
                }

                @keyframes float2 {
                    0%{transform: translate(0, 0)}
                    50%{transform: translate(-5px, -5px)}
                    100%{transform: translate(0, 0)}
                }

                .triangle-float2 {
                    animation: float2 4s infinite;
                }

                @keyframes float3 {
                    0%{transform: translate(0, 0)}
                    50%{transform: translate(0, -10px)}
                    100%{transform: translate(0, 0)}
                }

                .triangle-float3 {
                    animation: float3 6s infinite;
                }
            </style></defs></svg>