<svg xmlns="http://www.w3.org/2000/svg" version="1.1" xmlns:xlink="http://www.w3.org/1999/xlink" xmlns:svgjs="http://svgjs.dev/svgjs" width="1920" height="1080" preserveAspectRatio="none" viewBox="0 0 1920 1080"><g mask="url(&quot;#SvgjsMask1124&quot;)" fill="none"><rect width="1920" height="1080" x="0" y="0" fill="rgba(13, 18, 30, 1)"></rect><path d="M1413.99 106.95 a316.28 316.28 0 1 0 632.56 0 a316.28 316.28 0 1 0 -632.56 0z" fill="rgba(19, 26, 41, 0.46)" class="triangle-float1"></path><path d="M566.1 451.17 a262.6 262.6 0 1 0 525.2 0 a262.6 262.6 0 1 0 -525.2 0z" fill="rgba(19, 26, 41, 0.46)" class="triangle-float3"></path><path d="M471.95 899.11 a338.21 338.21 0 1 0 676.42 0 a338.21 338.21 0 1 0 -676.42 0z" fill="rgba(19, 26, 41, 0.46)" class="triangle-float2"></path><path d="M373.75 855.31 a263.53 263.53 0 1 0 527.06 0 a263.53 263.53 0 1 0 -527.06 0z" fill="rgba(19, 26, 41, 0.46)" class="triangle-float1"></path><path d="M1512.9 179.14 a318.08 318.08 0 1 0 636.16 0 a318.08 318.08 0 1 0 -636.16 0z" fill="rgba(19, 26, 41, 0.46)" class="triangle-float1"></path><path d="M-307.43 493.28 a318.43 318.43 0 1 0 636.86 0 a318.43 318.43 0 1 0 -636.86 0z" fill="rgba(19, 26, 41, 0.46)" class="triangle-float3"></path><path d="M-87.09 40.16 a349.79 349.79 0 1 0 699.58 0 a349.79 349.79 0 1 0 -699.58 0z" fill="rgba(19, 26, 41, 0.46)" class="triangle-float2"></path><path d="M835.11 1050.2 a227.69 227.69 0 1 0 455.38 0 a227.69 227.69 0 1 0 -455.38 0z" fill="rgba(19, 26, 41, 0.46)" class="triangle-float3"></path><path d="M997.43 206.92 a341.79 341.79 0 1 0 683.58 0 a341.79 341.79 0 1 0 -683.58 0z" fill="rgba(19, 26, 41, 0.46)" class="triangle-float1"></path></g><defs><mask id="SvgjsMask1124"><rect width="1920" height="1080" fill="#ffffff"></rect></mask><style>
                @keyframes float1 {
                    0%{transform: translate(0, 0)}
                    50%{transform: translate(-10px, 0)}
                    100%{transform: translate(0, 0)}
                }

                .triangle-float1 {
                    animation: float1 5s infinite;
                }

                @keyframes float2 {
                    0%{transform: translate(0, 0)}
                    50%{transform: translate(-5px, -5px)}
                    100%{transform: translate(0, 0)}
                }

                .triangle-float2 {
                    animation: float2 4s infinite;
                }

                @keyframes float3 {
                    0%{transform: translate(0, 0)}
                    50%{transform: translate(0, -10px)}
                    100%{transform: translate(0, 0)}
                }

                .triangle-float3 {
                    animation: float3 6s infinite;
                }
            </style></defs></svg>