<svg xmlns="http://www.w3.org/2000/svg" version="1.1" xmlns:xlink="http://www.w3.org/1999/xlink" xmlns:svgjs="http://svgjs.dev/svgjs" width="1920" height="1080" preserveAspectRatio="none" viewBox="0 0 1920 1080"><g mask="url(&quot;#SvgjsMask1160&quot;)" fill="none"><rect width="1920" height="1080" x="0" y="0" fill="rgba(97, 56, 3, 1)"></rect><path d="M458.31 292.55 a250.59 250.59 0 1 0 501.18 0 a250.59 250.59 0 1 0 -501.18 0z" fill="rgba(113, 74, 2, 0.56)" class="triangle-float2"></path><path d="M-57.91 174.15 a237.27 237.27 0 1 0 474.54 0 a237.27 237.27 0 1 0 -474.54 0z" fill="rgba(113, 74, 2, 0.56)" class="triangle-float1"></path><path d="M47.76 347.62 a216.85 216.85 0 1 0 433.7 0 a216.85 216.85 0 1 0 -433.7 0z" fill="rgba(113, 74, 2, 0.56)" class="triangle-float3"></path><path d="M581.47 605.36 a218.82 218.82 0 1 0 437.64 0 a218.82 218.82 0 1 0 -437.64 0z" fill="rgba(113, 74, 2, 0.56)" class="triangle-float2"></path><path d="M-247.14 986.43 a304.05 304.05 0 1 0 608.1 0 a304.05 304.05 0 1 0 -608.1 0z" fill="rgba(113, 74, 2, 0.56)" class="triangle-float2"></path><path d="M1031.53 718.2 a337.13 337.13 0 1 0 674.26 0 a337.13 337.13 0 1 0 -674.26 0z" fill="rgba(113, 74, 2, 0.56)" class="triangle-float1"></path><path d="M664.42 1.84 a205.69 205.69 0 1 0 411.38 0 a205.69 205.69 0 1 0 -411.38 0z" fill="rgba(113, 74, 2, 0.56)" class="triangle-float3"></path><path d="M897.3 227.12 a327.35 327.35 0 1 0 654.7 0 a327.35 327.35 0 1 0 -654.7 0z" fill="rgba(113, 74, 2, 0.56)" class="triangle-float3"></path><path d="M448.98 359.38 a292.64 292.64 0 1 0 585.28 0 a292.64 292.64 0 1 0 -585.28 0z" fill="rgba(113, 74, 2, 0.56)" class="triangle-float1"></path></g><defs><mask id="SvgjsMask1160"><rect width="1920" height="1080" fill="#ffffff"></rect></mask><style>
                @keyframes float1 {
                    0%{transform: translate(0, 0)}
                    50%{transform: translate(-10px, 0)}
                    100%{transform: translate(0, 0)}
                }

                .triangle-float1 {
                    animation: float1 5s infinite;
                }

                @keyframes float2 {
                    0%{transform: translate(0, 0)}
                    50%{transform: translate(-5px, -5px)}
                    100%{transform: translate(0, 0)}
                }

                .triangle-float2 {
                    animation: float2 4s infinite;
                }

                @keyframes float3 {
                    0%{transform: translate(0, 0)}
                    50%{transform: translate(0, -10px)}
                    100%{transform: translate(0, 0)}
                }

                .triangle-float3 {
                    animation: float3 6s infinite;
                }
            </style></defs></svg>