<svg xmlns="http://www.w3.org/2000/svg" version="1.1" xmlns:xlink="http://www.w3.org/1999/xlink" xmlns:svgjs="http://svgjs.dev/svgjs" width="1920" height="1080" preserveAspectRatio="none" viewBox="0 0 1920 1080"><g mask="url(&quot;#SvgjsMask1171&quot;)" fill="none"><rect width="1920" height="1080" x="0" y="0" fill="rgba(252, 204, 229, 1)"></rect><path d="M-289.33 121.47 a328.69 328.69 0 1 0 657.38 0 a328.69 328.69 0 1 0 -657.38 0z" fill="rgba(255, 169, 210, 0.52)" class="triangle-float1"></path><path d="M977.8 914.15 a247.13 247.13 0 1 0 494.26 0 a247.13 247.13 0 1 0 -494.26 0z" fill="rgba(255, 169, 210, 0.52)" class="triangle-float1"></path><path d="M1419.65 185.38 a260.71 260.71 0 1 0 521.42 0 a260.71 260.71 0 1 0 -521.42 0z" fill="rgba(255, 169, 210, 0.52)" class="triangle-float2"></path><path d="M824.94 405.75 a340.4 340.4 0 1 0 680.8 0 a340.4 340.4 0 1 0 -680.8 0z" fill="rgba(255, 169, 210, 0.52)" class="triangle-float1"></path><path d="M213.01 845.94 a185.44 185.44 0 1 0 370.88 0 a185.44 185.44 0 1 0 -370.88 0z" fill="rgba(255, 169, 210, 0.52)" class="triangle-float3"></path><path d="M72.77 757.55 a186.76 186.76 0 1 0 373.52 0 a186.76 186.76 0 1 0 -373.52 0z" fill="rgba(255, 169, 210, 0.52)" class="triangle-float2"></path><path d="M1505.86 131.42 a261.84 261.84 0 1 0 523.68 0 a261.84 261.84 0 1 0 -523.68 0z" fill="rgba(255, 169, 210, 0.52)" class="triangle-float1"></path><path d="M-79.04 435.47 a295.18 295.18 0 1 0 590.36 0 a295.18 295.18 0 1 0 -590.36 0z" fill="rgba(255, 169, 210, 0.52)" class="triangle-float2"></path><path d="M420.45 92.09 a296.7 296.7 0 1 0 593.4 0 a296.7 296.7 0 1 0 -593.4 0z" fill="rgba(255, 169, 210, 0.52)" class="triangle-float2"></path></g><defs><mask id="SvgjsMask1171"><rect width="1920" height="1080" fill="#ffffff"></rect></mask><style>
                @keyframes float1 {
                    0%{transform: translate(0, 0)}
                    50%{transform: translate(-10px, 0)}
                    100%{transform: translate(0, 0)}
                }

                .triangle-float1 {
                    animation: float1 5s infinite;
                }

                @keyframes float2 {
                    0%{transform: translate(0, 0)}
                    50%{transform: translate(-5px, -5px)}
                    100%{transform: translate(0, 0)}
                }

                .triangle-float2 {
                    animation: float2 4s infinite;
                }

                @keyframes float3 {
                    0%{transform: translate(0, 0)}
                    50%{transform: translate(0, -10px)}
                    100%{transform: translate(0, 0)}
                }

                .triangle-float3 {
                    animation: float3 6s infinite;
                }
            </style></defs></svg>