<svg xmlns="http://www.w3.org/2000/svg" version="1.1" xmlns:xlink="http://www.w3.org/1999/xlink" xmlns:svgjs="http://svgjs.dev/svgjs" width="1920" height="1080" preserveAspectRatio="none" viewBox="0 0 1920 1080"><g mask="url(&quot;#SvgjsMask1083&quot;)" fill="none"><rect width="1920" height="1080" x="0" y="0" fill="rgba(13, 24, 30, 1)"></rect><path d="M0,646.475C124.087,642.445,231.366,579.874,350.739,545.761C527.609,495.217,764.099,547.541,870.728,397.648C972.922,253.989,861.959,53.626,823.168,-118.354C787.319,-277.293,772.852,-455.38,653.345,-566.127C536.703,-674.219,361.369,-674.452,203.393,-692.694C68.4,-708.282,-61.585,-689.937,-194.993,-664.085C-342.228,-635.553,-513.061,-642.824,-616.135,-533.884C-719.766,-424.355,-722.268,-254.965,-724.728,-104.2C-726.965,32.926,-694.07,166.488,-629.535,287.499C-567.763,403.329,-479.728,504.003,-365.693,569.029C-255.215,632.026,-127.11,650.603,0,646.475" fill="#081014"></path><path d="M1920 1940.301C2078.18 1932.649 2169.4139999999998 1760.987 2301.397 1673.4650000000001 2430.875 1587.604 2635.001 1576.798 2688.252 1430.849 2742.175 1283.057 2578.721 1144.138 2551.0299999999997 989.272 2524.7380000000003 842.226 2619.783 670.712 2530.873 550.675 2442.251 431.02700000000004 2257.634 457.206 2118.218 404.933 1964.62 347.34299999999996 1826.21 178.44299999999998 1669.776 227.81399999999996 1512.708 277.385 1499.075 498.073 1401.851 631.021 1315.1109999999999 749.6320000000001 1148.563 820.644 1129.674 966.3679999999999 1110.7939999999999 1112.017 1240.049 1229.25 1307.387 1359.771 1371.036 1483.142 1413.362 1616.063 1514.127 1711.551 1629.182 1820.5810000000001 1761.676 1947.96 1920 1940.301" fill="#122029"></path></g><defs><mask id="SvgjsMask1083"><rect width="1920" height="1080" fill="#ffffff"></rect></mask></defs></svg>