<svg xmlns="http://www.w3.org/2000/svg" version="1.1" xmlns:xlink="http://www.w3.org/1999/xlink" xmlns:svgjs="http://svgjs.dev/svgjs" width="1920" height="1080" preserveAspectRatio="none" viewBox="0 0 1920 1080"><g mask="url(&quot;#SvgjsMask1140&quot;)" fill="none"><rect width="1920" height="1080" x="0" y="0" fill="rgba(13, 30, 14, 1)"></rect><path d="M1146.29 126.52 a248.18 248.18 0 1 0 496.36 0 a248.18 248.18 0 1 0 -496.36 0z" fill="rgba(19, 41, 22, 0.46)" class="triangle-float3"></path><path d="M948.21 464.75 a194.02 194.02 0 1 0 388.04 0 a194.02 194.02 0 1 0 -388.04 0z" fill="rgba(19, 41, 22, 0.46)" class="triangle-float2"></path><path d="M344.73 659.92 a247.07 247.07 0 1 0 494.14 0 a247.07 247.07 0 1 0 -494.14 0z" fill="rgba(19, 41, 22, 0.46)" class="triangle-float3"></path><path d="M-183.57 215.41 a348.19 348.19 0 1 0 696.38 0 a348.19 348.19 0 1 0 -696.38 0z" fill="rgba(19, 41, 22, 0.46)" class="triangle-float2"></path><path d="M863.03 97 a254.57 254.57 0 1 0 509.14 0 a254.57 254.57 0 1 0 -509.14 0z" fill="rgba(19, 41, 22, 0.46)" class="triangle-float3"></path><path d="M783.47 512.5 a303.8 303.8 0 1 0 607.6 0 a303.8 303.8 0 1 0 -607.6 0z" fill="rgba(19, 41, 22, 0.46)" class="triangle-float3"></path><path d="M1300.6 754.5 a254.67 254.67 0 1 0 509.34 0 a254.67 254.67 0 1 0 -509.34 0z" fill="rgba(19, 41, 22, 0.46)" class="triangle-float3"></path><path d="M-89.51 701.58 a294.18 294.18 0 1 0 588.36 0 a294.18 294.18 0 1 0 -588.36 0z" fill="rgba(19, 41, 22, 0.46)" class="triangle-float2"></path><path d="M-22.32 738.6 a208.99 208.99 0 1 0 417.98 0 a208.99 208.99 0 1 0 -417.98 0z" fill="rgba(19, 41, 22, 0.46)" class="triangle-float1"></path></g><defs><mask id="SvgjsMask1140"><rect width="1920" height="1080" fill="#ffffff"></rect></mask><style>
                @keyframes float1 {
                    0%{transform: translate(0, 0)}
                    50%{transform: translate(-10px, 0)}
                    100%{transform: translate(0, 0)}
                }

                .triangle-float1 {
                    animation: float1 5s infinite;
                }

                @keyframes float2 {
                    0%{transform: translate(0, 0)}
                    50%{transform: translate(-5px, -5px)}
                    100%{transform: translate(0, 0)}
                }

                .triangle-float2 {
                    animation: float2 4s infinite;
                }

                @keyframes float3 {
                    0%{transform: translate(0, 0)}
                    50%{transform: translate(0, -10px)}
                    100%{transform: translate(0, 0)}
                }

                .triangle-float3 {
                    animation: float3 6s infinite;
                }
            </style></defs></svg>